<?xml version="1.0" encoding="UTF-8" standalone="no"?><!DOCTYPE svg PUBLIC "-//W3C//DTD SVG 1.1//EN" "http://www.w3.org/Graphics/SVG/1.1/DTD/svg11.dtd"><svg width="100%" height="100%" viewBox="0 0 1154 201" version="1.1" xmlns="http://www.w3.org/2000/svg" xmlns:xlink="http://www.w3.org/1999/xlink" xml:space="preserve" xmlns:serif="http://www.serif.com/" style="fill-rule:evenodd;clip-rule:evenodd;stroke-linejoin:round;stroke-miterlimit:2;"><rect id="Tavola-da-disegno1" serif:id="Tavola da disegno1" x="0" y="0" width="1153.979" height="200.275" style="fill:none;"/><clipPath id="_clip1"><rect x="0" y="0" width="1153.979" height="200.275"/></clipPath><g clip-path="url(#_clip1)"><g><path d="M453.054,100.169l400.558,0l0,100.126l-400.558,0l0,-100.126Zm118.858,71.487c3.145,3.145 7.503,4.714 13.089,4.714c5.298,0 9.428,-1.41 12.377,-4.222c2.721,-2.531 4.085,-5.843 4.085,-9.921c0,-4.267 -1.296,-7.549 -3.88,-9.853c-1.978,-1.827 -4.942,-3.259 -8.89,-4.29l-6.488,-1.69c-5.548,-1.592 -8.322,-4.638 -8.322,-9.14c0,-2.486 0.773,-4.502 2.327,-6.056c1.789,-1.781 4.426,-2.668 7.905,-2.668c7.344,0 11.247,3.752 11.717,11.255l5.139,-1.41c-0.705,-9.565 -6.359,-14.355 -16.954,-14.355c-4.6,0 -8.375,1.341 -11.331,4.017c-2.812,2.622 -4.222,5.859 -4.222,9.709c0,6.844 4.009,11.346 12.035,13.506l6.541,1.758c2.857,0.841 4.949,1.804 6.26,2.888c1.781,1.637 2.675,4.009 2.675,7.102c0,5.912 -3.683,8.867 -11.05,8.867c-7.405,0 -11.672,-4.085 -12.801,-12.24l-5.207,0.985c0.47,4.593 2.13,8.276 4.995,11.043Zm-42.142,-46.434l-5.419,0l0,33.908c0,5.207 1.387,9.337 4.153,12.384c2.956,3.236 7.155,4.858 12.596,4.858c5.343,0 9.474,-1.622 12.377,-4.858c2.63,-3.047 3.941,-7.177 3.941,-12.384l0,-33.908l-5.419,0l0,33.908c0,8.398 -3.623,12.596 -10.868,12.596c-3.691,0 -6.518,-1.152 -8.481,-3.448c-1.917,-2.205 -2.88,-5.252 -2.88,-9.148l0,-33.908Zm-35.528,-0l-16.181,49.953l5.275,0l4.858,-14.915l18.152,0l4.851,14.915l5.351,0l-16.189,-49.953l-6.116,0Zm10.626,30.392l-15.203,0l0.424,-1.266c1.69,-5.343 3.13,-10.027 4.328,-14.036c1.197,-4.009 2.122,-7.42 2.781,-10.239l0.136,0c0.985,3.85 2.077,7.791 3.274,11.823c1.197,4.032 2.471,8.185 3.835,12.452l0.424,1.266Z"/><path d="M853.604,0.02l300.401,0l0,100.149l-300.401,0l0,-100.149Zm184.797,67.381c-0.379,-1.266 -1.084,-3.168 -2.107,-5.699l-16.886,-36.516l-7.109,0l0,49.953l5.419,0l0,-39.115c0,-0.94 -0.015,-1.758 -0.038,-2.463c-0.023,-0.705 -0.061,-1.311 -0.106,-1.827l0.144,0c0.182,0.796 0.887,2.577 2.107,5.343l17.591,38.062l6.404,0l0,-49.953l-5.419,0l0,37.076c0,1.175 0.008,2.183 0.038,3.032c0.023,0.841 0.053,1.546 0.099,2.107l-0.136,0Zm-155.132,7.74l6.965,0l5.207,-23.146c0.75,-3.661 1.243,-6.874 1.478,-9.64l0.561,0c0.235,2.766 0.728,5.98 1.478,9.64l5.207,23.146l6.965,0l4.646,-49.953l-5.351,0l-2.675,36.94c-0.28,3.752 -0.417,6.541 -0.417,8.367l-0.561,0c-0.189,-2.387 -0.682,-5.32 -1.478,-8.792l-5.563,-24.412l-5.063,0l-5.555,24.412c-0.803,3.471 -1.296,6.404 -1.485,8.792l-0.561,0c0,-1.827 -0.136,-4.616 -0.417,-8.367l-2.675,-36.94l-5.351,0l4.646,49.953Zm42.072,-45.591l12.733,0l0,41.23l-12.733,0l0,4.358l30.96,0l0,-4.358l-12.809,0l0,-41.23l12.809,0l0,-4.366l-30.96,0l0,4.366Zm74.294,45.591l0,-4.646l-23.851,0l0,-18.713l22.161,0l0,-4.502l-22.161,0l0,-17.447l23.358,0l0,-4.646l-28.77,0l0,49.953l29.263,0Z"/><path d="M0.026,50.11l453.027,0l0,50.067l-453.027,0l0,-50.067Zm179.653,32.168l-2.463,0.417c0.599,3.585 3.032,5.381 7.283,5.381c2.016,0 3.6,-0.485 4.76,-1.455c1.129,-0.925 1.698,-2.175 1.698,-3.744c0,-2.471 -1.485,-4.002 -4.464,-4.6l-3.388,-0.659c-1.895,-0.371 -2.835,-1.296 -2.835,-2.774c0,-0.925 0.356,-1.637 1.069,-2.145c0.712,-0.531 1.652,-0.796 2.797,-0.796c2.539,0 4.002,1.107 4.388,3.327l2.403,-0.515c-0.189,-1.531 -0.864,-2.713 -2.016,-3.555c-1.182,-0.849 -2.728,-1.273 -4.654,-1.273c-1.917,0 -3.479,0.477 -4.684,1.425c-1.16,0.947 -1.736,2.152 -1.736,3.608c0,2.592 1.508,4.176 4.51,4.752l3.373,0.667c1.872,0.341 2.804,1.258 2.804,2.736c0,0.879 -0.333,1.599 -1,2.152c-0.743,0.561 -1.713,0.834 -2.918,0.834c-2.91,0 -4.555,-1.258 -4.926,-3.782Zm-44.845,3.367l0,2.016l14.127,0l0,-2.016l-6.003,0l0,-15.34l-7.678,0l0,2.008l5.245,0l0,13.331l-5.692,0Zm87.885,-3.367l-2.463,0.417c0.599,3.585 3.032,5.381 7.283,5.381c2.016,0 3.6,-0.485 4.76,-1.455c1.129,-0.925 1.698,-2.175 1.698,-3.744c0,-2.471 -1.485,-4.002 -4.464,-4.6l-3.388,-0.659c-1.895,-0.371 -2.835,-1.296 -2.835,-2.774c0,-0.925 0.356,-1.637 1.069,-2.145c0.712,-0.531 1.652,-0.796 2.797,-0.796c2.539,0 4.002,1.107 4.388,3.327l2.403,-0.515c-0.189,-1.531 -0.864,-2.713 -2.016,-3.555c-1.182,-0.849 -2.728,-1.273 -4.654,-1.273c-1.917,0 -3.479,0.477 -4.684,1.425c-1.16,0.947 -1.736,2.152 -1.736,3.608c0,2.592 1.508,4.176 4.51,4.752l3.373,0.667c1.872,0.341 2.804,1.258 2.804,2.736c0,0.879 -0.333,1.599 -1,2.152c-0.743,0.561 -1.713,0.834 -2.918,0.834c-2.91,0 -4.555,-1.258 -4.926,-3.782Zm21.52,-8.296l0,-3.676l-2.327,0l0,24.116l2.433,0l0,-10.027c0.387,1.084 1.107,1.978 2.145,2.675c1.016,0.667 2.099,1 3.251,1c2.266,0 4.062,-0.841 5.396,-2.531c1.296,-1.645 1.94,-3.843 1.94,-6.594c0,-2.683 -0.621,-4.858 -1.864,-6.526c-1.319,-1.69 -3.085,-2.531 -5.298,-2.531c-1.251,0 -2.41,0.402 -3.494,1.213c-0.993,0.765 -1.72,1.72 -2.183,2.88Zm0.068,5.343l0,-0.765c0,-1.917 0.462,-3.479 1.387,-4.684c0.963,-1.22 2.221,-1.842 3.767,-1.842c1.614,0 2.872,0.644 3.774,1.91c0.849,1.205 1.273,2.872 1.273,5.002c0,2.175 -0.447,3.865 -1.349,5.063c-0.894,1.281 -2.152,1.91 -3.767,1.91c-1.546,0 -2.789,-0.606 -3.736,-1.834c-0.902,-1.205 -1.349,-2.789 -1.349,-4.76Zm-44.428,6.25c1.41,1.667 3.335,2.501 5.76,2.501c2.41,0 4.328,-0.826 5.76,-2.463c1.463,-1.622 2.19,-3.835 2.19,-6.632c0,-2.774 -0.728,-4.987 -2.19,-6.632c-1.432,-1.637 -3.35,-2.463 -5.76,-2.463c-2.403,0 -4.328,0.826 -5.76,2.463c-1.455,1.645 -2.19,3.858 -2.19,6.632c0,2.728 0.735,4.926 2.19,6.594Zm9.716,-1.455c-0.97,1.228 -2.289,1.834 -3.956,1.834c-1.667,0 -2.971,-0.606 -3.918,-1.834c-0.978,-1.251 -1.463,-2.963 -1.463,-5.139c0,-2.175 0.485,-3.888 1.463,-5.139c0.947,-1.228 2.251,-1.834 3.918,-1.834c1.667,0 2.986,0.621 3.956,1.872c0.947,1.22 1.425,2.925 1.425,5.101c0,2.152 -0.477,3.865 -1.425,5.139Zm-69.797,-21.485l0,4.199l3.403,0l0,-4.199l-3.403,0Zm172.159,0l0,4.199l3.403,0l0,-4.199l-3.403,0Zm-47.136,16.935l0,-0.068l12.528,0l0.038,-1.076c0,-2.524 -0.546,-4.532 -1.629,-6.04c-1.251,-1.667 -3.13,-2.501 -5.624,-2.501c-2.365,0 -4.244,0.803 -5.662,2.395c-1.387,1.599 -2.084,3.729 -2.084,6.389c0,2.941 0.659,5.222 1.978,6.836c1.395,1.713 3.38,2.569 5.972,2.569c3.335,0 5.662,-1.561 6.973,-4.684l-2.084,-1.046c-0.978,2.387 -2.615,3.577 -4.904,3.577c-1.698,0 -3.039,-0.591 -4.04,-1.773c-0.978,-1.129 -1.463,-2.66 -1.463,-4.578Zm1.326,-6.003c0.97,-1.182 2.259,-1.773 3.865,-1.773c1.645,0 2.903,0.568 3.759,1.698c0.788,1.023 1.16,2.357 1.114,3.994l-10.027,0c0,-1.546 0.424,-2.857 1.288,-3.918Zm21.131,8.711l-2.463,0.417c0.599,3.585 3.032,5.381 7.283,5.381c2.016,0 3.6,-0.485 4.76,-1.455c1.129,-0.925 1.698,-2.175 1.698,-3.744c0,-2.471 -1.485,-4.002 -4.464,-4.6l-3.388,-0.659c-1.895,-0.371 -2.835,-1.296 -2.835,-2.774c0,-0.925 0.356,-1.637 1.069,-2.145c0.712,-0.531 1.652,-0.796 2.797,-0.796c2.539,0 4.002,1.107 4.388,3.327l2.403,-0.515c-0.189,-1.531 -0.864,-2.713 -2.016,-3.555c-1.182,-0.849 -2.728,-1.273 -4.654,-1.273c-1.917,0 -3.479,0.477 -4.684,1.425c-1.16,0.947 -1.736,2.152 -1.736,3.608c0,2.592 1.508,4.176 4.51,4.752l3.373,0.667c1.872,0.341 2.804,1.258 2.804,2.736c0,0.879 -0.333,1.599 -1,2.152c-0.743,0.561 -1.713,0.834 -2.918,0.834c-2.91,0 -4.555,-1.258 -4.926,-3.782Zm19.715,3.367l0,2.016l14.127,0l0,-2.016l-6.003,0l0,-15.34l-7.678,0l0,2.008l5.245,0l0,13.331l-5.692,0Zm-253.274,-23.01l0,4.199l3.403,0l0,-4.199l-3.403,0Zm-28.671,7.668l7.079,17.356l2.675,0l7.079,-17.356l-2.501,0l-5.032,12.43c-0.114,0.318 -0.243,0.682 -0.379,1.091c-0.136,0.402 -0.28,0.849 -0.417,1.334l-0.136,0c-0.099,-0.258 -0.212,-0.591 -0.349,-1.008c-0.144,-0.417 -0.311,-0.887 -0.523,-1.417l-4.926,-12.43l-2.569,0Zm99.13,1.25c0.485,-1.205 1.425,-1.804 2.812,-1.804c0.273,0 0.621,0.03 1.038,0.106l0,-2.152c-0.25,-0.076 -0.561,-0.106 -0.932,-0.106c-2.122,0 -3.494,1.016 -4.123,3.054c-0.947,-0.508 -2.069,-0.765 -3.357,-0.765c-1.895,0 -3.403,0.553 -4.54,1.667c-1.175,1.084 -1.758,2.509 -1.758,4.267c0,1.781 0.599,3.206 1.804,4.267c-1.645,0.606 -2.471,1.69 -2.471,3.267c0,1.455 0.743,2.478 2.221,3.054c-2.054,0.652 -3.085,1.94 -3.085,3.888c0,1.432 0.69,2.547 2.084,3.327c1.41,0.811 3.32,1.22 5.722,1.22c2.615,0 4.669,-0.477 6.147,-1.425c1.455,-0.97 2.19,-2.349 2.19,-4.131c0,-1.432 -0.477,-2.554 -1.425,-3.365c-0.993,-0.811 -2.357,-1.213 -4.085,-1.213l-4.669,0c-1.963,0 -2.941,-0.652 -2.941,-1.948c0,-0.834 0.47,-1.478 1.417,-1.94c0.917,0.485 2.016,0.728 3.282,0.728c1.872,0 3.403,-0.546 4.6,-1.629c1.182,-1.069 1.766,-2.478 1.766,-4.237c0,-1.69 -0.568,-3.069 -1.698,-4.131Zm-6.503,15.272l4.252,0c2.38,0 3.57,0.902 3.57,2.706c0,2.198 -1.872,3.297 -5.608,3.297c-3.782,0 -5.669,-1.061 -5.669,-3.191c0,-1.364 0.705,-2.327 2.107,-2.88c0.28,0.023 0.523,0.038 0.743,0.053c0.22,0.008 0.424,0.015 0.606,0.015Zm4.767,-8.261c-0.781,0.743 -1.758,1.114 -2.933,1.114c-1.152,0 -2.084,-0.364 -2.797,-1.076c-0.743,-0.743 -1.107,-1.683 -1.107,-2.812c0,-1.16 0.364,-2.13 1.107,-2.918c0.735,-0.743 1.705,-1.114 2.903,-1.114c1.175,0 2.13,0.371 2.865,1.114c0.735,0.743 1.107,1.675 1.107,2.812c0,1.16 -0.379,2.115 -1.144,2.88Zm-73.688,7.081l0,2.016l14.127,0l0,-2.016l-6.01,0l0,-15.34l-7.67,0l0,2.008l5.245,0l0,13.331l-5.692,0Zm34.084,-4.062l0,-4.479c0,-2.493 -0.523,-4.328 -1.554,-5.48c-1.016,-1.16 -2.622,-1.736 -4.813,-1.736c-2.13,0 -3.82,0.508 -5.093,1.523c-1.251,1 -1.94,2.433 -2.077,4.305l2.569,0c0.182,-2.547 1.667,-3.82 4.441,-3.82c2.728,0 4.093,1.667 4.093,5.002l0,0.311l-3.888,0.455c-2.683,0.318 -4.555,0.819 -5.616,1.493c-1.44,0.879 -2.152,2.16 -2.152,3.85c0,1.523 0.531,2.751 1.592,3.676c1.069,0.925 2.456,1.387 4.168,1.387c2.91,0 4.942,-1.296 6.071,-3.88c0.023,0.508 0.053,1.046 0.083,1.614c0.038,0.561 0.091,1.182 0.159,1.849l2.539,0c-0.349,-1.266 -0.523,-3.297 -0.523,-6.071Zm-6.973,-2.016l4.578,-0.584l0,1.107c0,1.804 -0.5,3.251 -1.493,4.343c-1.016,1.084 -2.357,1.629 -4.024,1.629c-1.114,0 -1.993,-0.288 -2.637,-0.872c-0.652,-0.553 -0.978,-1.319 -0.978,-2.289c0,-1.804 1.516,-2.918 4.555,-3.335Zm26.793,-8.014c0.485,-1.205 1.425,-1.804 2.812,-1.804c0.273,0 0.621,0.03 1.038,0.106l0,-2.152c-0.25,-0.076 -0.561,-0.106 -0.932,-0.106c-2.122,0 -3.494,1.016 -4.123,3.054c-0.947,-0.508 -2.069,-0.765 -3.357,-0.765c-1.895,0 -3.403,0.553 -4.54,1.667c-1.175,1.084 -1.758,2.509 -1.758,4.267c0,1.781 0.599,3.206 1.804,4.267c-1.645,0.606 -2.463,1.69 -2.463,3.267c0,1.455 0.735,2.478 2.221,3.054c-2.061,0.652 -3.092,1.94 -3.092,3.888c0,1.432 0.69,2.547 2.084,3.327c1.41,0.811 3.32,1.22 5.722,1.22c2.622,0 4.669,-0.477 6.147,-1.425c1.455,-0.97 2.19,-2.349 2.19,-4.131c0,-1.432 -0.477,-2.554 -1.425,-3.365c-0.993,-0.811 -2.349,-1.213 -4.085,-1.213l-4.669,0c-1.963,0 -2.941,-0.652 -2.941,-1.948c0,-0.834 0.47,-1.478 1.417,-1.94c0.917,0.485 2.016,0.728 3.282,0.728c1.872,0 3.403,-0.546 4.608,-1.629c1.175,-1.069 1.758,-2.478 1.758,-4.237c0,-1.69 -0.568,-3.069 -1.698,-4.131Zm-1.736,7.011c-0.781,0.743 -1.758,1.114 -2.933,1.114c-1.152,0 -2.084,-0.364 -2.797,-1.076c-0.735,-0.743 -1.107,-1.683 -1.107,-2.812c0,-1.16 0.371,-2.13 1.107,-2.918c0.735,-0.743 1.705,-1.114 2.903,-1.114c1.175,0 2.13,0.371 2.865,1.114c0.735,0.743 1.107,1.675 1.107,2.812c0,1.16 -0.379,2.115 -1.144,2.88Zm-4.767,8.261l4.259,0c2.372,0 3.562,0.902 3.562,2.706c0,2.198 -1.872,3.297 -5.608,3.297c-3.782,0 -5.669,-1.061 -5.669,-3.191c0,-1.364 0.705,-2.327 2.107,-2.88c0.28,0.023 0.523,0.038 0.743,0.053c0.22,0.008 0.424,0.015 0.606,0.015Z"/></g></g></svg>